{"title":"Nirvana - In Utero [24-bit 96kHz flac] MC Lurken Mix","uid":9190812,"size":1074515350,"categoryP":"audio","categoryS":"flac","magnet":"?xt=urn:btih:87618a8ddebbbd756e47d2be82a64e135657ed5c&amp;dn=Nirvana+-+In+Utero+%5B24-bit+96kHz+flac%5D+MC+Lurken+Mix&amp;tr=udp%3A%2F%2Ftracker.openbittorrent.com%3A80&amp;tr=udp%3A%2F%2Fopen.demonii.com%3A1337&amp;tr=udp%3A%2F%2Ftracker.coppersurfer.tk%3A6969&amp;tr=udp%3A%2F%2Fexodus.desync.com%3A6969","seeders":2,"leechers":1,"uploader":"beavis39","files":-1,"time":1384383773,"description":"Nirvana - In Utero [24-bit 96kHz flac] MC Lurken Mix\n\n\n\n**MC Lurken Mix featuring custom Izotope Ozone 5 VST (EQ, Dynamics, Imaging, Dither) and 64-bit/384kHz processing. Presented in high resolution 24-bit/96kHz flac**\n\n\n\nFrom original 1993 release\n\n\n\n1 - Serve The Servants\n2 - Scentless Apprentice\n3 - Heart-Shaped Box\n4 - Rape Me\n5 - Frances Farmer Will Have Her Revenge On Seattle\n6 - Dumb\n7 - Very Ape\n8 - Milk It\n9 - Pennyroyal Tea\n10 - Radio Friendly Unit Shifter\n11 - Tourette's\n12 - All Apologies\n13 - Gallons Of Rubbing Alcohol Flow Through The Strip*\n     *hidden track (19 minutes silence removed)\n\n\n\nfoobar2000 1.2.9 / Dynamic Range Meter 1.1.1\nlog date: 2013-11-10 19:24:29\n\n--------------------------------------------------------------------------------\nAnalyzed: Nirvana / In Utero\n--------------------------------------------------------------------------------\n\nDR         Peak         RMS     Duration Track\n--------------------------------------------------------------------------------\nDR10       0.00 dB   -10.54 dB      3:37 01-Serve The Servants\nDR9        0.00 dB    -9.81 dB      3:48 02-Scentless Apprentice\nDR9        0.00 dB   -10.89 dB      4:42 03-Heart-Shaped Box\nDR9        0.00 dB   -10.62 dB      2:50 04-Rape Me\nDR9        0.00 dB   -10.42 dB      4:10 05-Frances Farmer Will Have Her Revenge On Seattle\nDR10       0.00 dB   -11.42 dB      2:32 06-Dumb\nDR10       0.00 dB   -10.61 dB      1:56 07-Very Ape\nDR9        0.00 dB   -10.69 dB      3:55 08-Milk It\nDR9        0.00 dB   -11.33 dB      3:37 09-Pennyroyal Tea\nDR9        0.00 dB   -11.01 dB      4:51 10-Radio Friendly Unit Shifter\nDR8        0.00 dB   -10.08 dB      1:35 11-Tourette's\nDR10       0.00 dB   -12.74 dB      4:54 12-All Apologies\nDR10       0.00 dB   -13.13 dB      7:36 13-Gallons Of Rubbing Alcohol Flow Through The Strip\n--------------------------------------------------------------------------------\n\nNumber of tracks:  13\nOfficial DR value: DR9\n\nSamplerate:        96000 Hz\nChannels:          2\nBits per sample:   24\nBitrate:           4608 kbps\nCodec:             PCM\n\n\n\nenjoy the music :)","torrent":{"xt":"urn:btih:87618a8ddebbbd756e47d2be82a64e135657ed5c","amp;dn":"Nirvana+-+In+Utero+%5B24-bit+96kHz+flac%5D+MC+Lurken+Mix","amp;tr":["udp%3A%2F%2Ftracker.openbittorrent.com%3A80","udp%3A%2F%2Fopen.demonii.com%3A1337","udp%3A%2F%2Ftracker.coppersurfer.tk%3A6969","udp%3A%2F%2Fexodus.desync.com%3A6969"],"infoHash":"87618a8ddebbbd756e47d2be82a64e135657ed5c","infoHashBuffer":{"type":"Buffer","data":[135,97,138,141,222,187,189,117,110,71,210,190,130,166,78,19,86,87,237,92]},"announce":[],"urlList":[]}}